<?xml version="1.0" encoding="UTF-8" standalone="no"?>
<svg width="286px" height="67px" viewBox="0 0 286 67" version="1.1" xmlns="http://www.w3.org/2000/svg" xmlns:xlink="http://www.w3.org/1999/xlink">
    <!-- Generator: Sketch 3.8.3 (29802) - http://www.bohemiancoding.com/sketch -->
    <title>Lokarpan</title>
    <desc>Created with Sketch.</desc>
    <defs></defs>
    <g id="Page-1" stroke="none" stroke-width="1" fill="none" fill-rule="evenodd">
        <g id="Lokarpan">
            <g id="Page-1">
                <g id="Layer-1">
                    <g id="Lokarpan" transform="translate(0.000000, 3.000000)" fill="#FFFFFF">
                        <path d="M0.083,49.28 L25.888,49.28 L25.888,40.83 L10.028,40.83 L10.028,2.805 L0.083,2.805 L0.083,49.28 Z M64.208,33.81 C64.208,24.32 57.123,17.105 46.853,17.105 C36.648,17.105 29.433,24.515 29.433,33.81 C29.433,43.105 36.453,50.515 46.853,50.515 C57.058,50.515 64.208,43.235 64.208,33.81 L64.208,33.81 Z M54.978,33.745 C54.978,38.815 51.793,42.13 46.788,42.13 C41.783,42.13 38.598,38.815 38.598,33.745 C38.598,28.74 41.718,25.425 46.788,25.425 C51.858,25.425 54.978,28.74 54.978,33.745 L54.978,33.745 Z M71.133,0.075 L71.133,49.28 L80.168,49.28 L80.168,32.77 L92.648,49.28 L103.828,49.28 L90.048,31.925 L102.593,18.145 L91.738,18.145 L80.168,31.925 L80.168,0.075 L71.133,0.075 Z M139.158,49.28 L139.158,18.145 L130.578,18.145 L130.578,23.28 C128.173,19.12 124.663,17.105 120.113,17.105 C111.273,17.105 106.008,23.28 106.008,33.745 C106.008,44.08 111.728,50.515 119.788,50.515 C124.728,50.515 128.043,48.76 130.513,44.795 L130.383,49.28 L139.158,49.28 Z M130.903,33.68 C130.903,39.335 127.978,42.585 123.038,42.585 C118.098,42.585 115.173,39.27 115.173,33.68 C115.173,28.025 118.163,24.58 123.103,24.58 C127.718,24.58 130.903,27.895 130.903,33.68 L130.903,33.68 Z M156.483,26.14 L156.678,18.145 L147.773,18.145 L147.773,49.28 L156.808,49.28 L156.808,35.565 C156.808,29.325 158.758,26.4 164.543,26.4 C166.038,26.4 167.403,26.66 168.768,27.245 L170.133,17.495 C168.833,17.3 167.728,17.105 166.753,17.105 C161.683,17.105 158.303,20.095 156.483,26.14 L156.483,26.14 Z M174.328,63.45 L183.363,63.45 L183.363,50.515 C183.363,48.565 183.298,46.615 183.038,44.795 C185.508,48.76 188.823,50.515 193.763,50.515 C201.823,50.515 207.478,44.08 207.478,33.745 C207.478,23.28 202.213,17.105 193.373,17.105 C188.823,17.105 185.378,19.12 182.973,23.28 L182.973,18.145 L174.328,18.145 L174.328,63.45 Z M182.583,33.68 C182.583,27.895 185.768,24.58 190.383,24.58 C195.323,24.58 198.313,28.025 198.313,33.68 C198.313,39.27 195.388,42.585 190.448,42.585 C185.508,42.585 182.583,39.335 182.583,33.68 L182.583,33.68 Z M245.668,49.28 L245.668,18.145 L237.088,18.145 L237.088,23.28 C234.683,19.12 231.173,17.105 226.623,17.105 C217.783,17.105 212.518,23.28 212.518,33.745 C212.518,44.08 218.238,50.515 226.298,50.515 C231.238,50.515 234.553,48.76 237.023,44.795 L236.893,49.28 L245.668,49.28 Z M237.413,33.68 C237.413,39.335 234.488,42.585 229.548,42.585 C224.608,42.585 221.683,39.27 221.683,33.68 C221.683,28.025 224.673,24.58 229.613,24.58 C234.228,24.58 237.413,27.895 237.413,33.68 L237.413,33.68 Z M254.283,49.28 L263.318,49.28 L263.318,34.33 C263.318,31.665 263.383,29.455 264.878,27.44 C266.243,25.555 268.388,24.45 270.923,24.45 C276.318,24.45 276.838,27.96 276.838,33.875 L276.838,49.28 L285.873,49.28 L285.873,30.105 C285.873,26.855 285.808,24.32 284.573,22.045 C282.688,18.73 279.438,17.105 274.628,17.105 C270.013,17.105 266.373,18.99 263.123,23.02 L263.123,18.145 L254.283,18.145 L254.283,49.28 Z"></path>
                    </g>
                    <path d="M221.333,6.28 C221.333,9.41 218.796,11.947 215.666,11.947 C212.537,11.947 210,9.41 210,6.28 C210,3.15 212.537,0.613 215.666,0.613 C218.796,0.613 221.333,3.15 221.333,6.28" id="Shape" fill="#22B14C"></path>
                    <path d="M240.333,6.28 C240.333,9.41 237.796,11.947 234.666,11.947 C231.537,11.947 229,9.41 229,6.28 C229,3.15 231.537,0.613 234.666,0.613 C237.796,0.613 240.333,3.15 240.333,6.28" id="Shape" fill="#00A2E8"></path>
                    <path d="M259.333,6.28 C259.333,9.41 256.796,11.947 253.666,11.947 C250.537,11.947 248,9.41 248,6.28 C248,3.15 250.537,0.613 253.666,0.613 C256.796,0.613 259.333,3.15 259.333,6.28" id="Shape" fill="#FFF200"></path>
                    <path d="M278.333,6.28 C278.333,9.41 275.796,11.947 272.666,11.947 C269.537,11.947 267,9.41 267,6.28 C267,3.15 269.537,0.613 272.666,0.613 C275.796,0.613 278.333,3.15 278.333,6.28" id="Shape" fill="#ED1C24"></path>
                </g>
            </g>
        </g>
    </g>
</svg>